<?xml version="1.0" encoding="iso-8859-1"?>
<!-- Uploaded to: SVG Repo, www.svgrepo.com, Generator: SVG Repo Mixer Tools -->
<svg height="800px" width="800px" version="1.1" id="Layer_1" xmlns="http://www.w3.org/2000/svg" xmlns:xlink="http://www.w3.org/1999/xlink" 
	 viewBox="0 0 512 512" xml:space="preserve">
<g>
	<path style="fill:#B5E06C;" d="M242.289,462.896c0,0,4.629-67.143,77.143-56.588C307.724,478.634,242.289,462.896,242.289,462.896z
		"/>
	<path style="fill:#B5E06C;" d="M149.031,285.851c0,0,94.542-7.916,95.366,95.366C141.116,380.381,149.031,285.851,149.031,285.851z
		"/>
</g>
<path style="fill:#F0C419;" d="M256,89.759c18.835,0,34.101,15.266,34.101,34.101c0,18.824-15.266,34.09-34.101,34.09
	c-18.824,0-34.09-15.266-34.09-34.09C221.911,105.025,237.177,89.759,256,89.759z"/>
<path style="fill:#F78A68;" d="M244.374,242.503c-16.479-3.357-30.414-13.723-38.578-27.835
	c-20.013-0.012-39.473-10.389-50.204-28.977c-10.731-18.576-9.989-40.627,0-57.967c-9.989-17.351-10.731-39.39,0-57.978
	c10.731-18.576,30.191-28.954,50.204-28.977C215.821,23.441,234.538,11.779,256,11.779s40.18,11.662,50.204,28.989
	c20.013,0.024,39.473,10.401,50.204,28.977c10.731,18.588,9.989,40.627,0,57.978c9.989,17.339,10.731,39.39,0,57.967
	c-10.731,18.588-30.191,28.966-50.204,28.977c-10.024,17.328-28.742,29.001-50.204,29.001
	C252.019,243.669,248.132,243.269,244.374,242.503z M290.102,123.861c0-18.835-15.266-34.101-34.101-34.101
	c-18.824,0-34.09,15.266-34.09,34.101c0,18.824,15.266,34.09,34.09,34.09C274.836,157.95,290.102,142.684,290.102,123.861z"/>
<path d="M256,255.449c-4.706,0-9.408-0.472-13.977-1.403c-17.331-3.531-32.63-13.571-42.846-27.917
	c-22.283-2.147-42.486-14.976-53.786-34.548c-11.302-19.564-12.313-43.477-3.028-63.857c-9.279-20.383-8.268-44.298,3.028-63.866
	c11.301-19.562,31.505-32.39,53.79-34.546C212.187,11.084,233.402,0,256,0s43.814,11.084,56.82,29.312
	c22.284,2.156,42.487,14.982,53.787,34.542c0.001,0.001,0.001,0.002,0.002,0.004c11.296,19.568,12.307,43.483,3.029,63.866
	c9.283,20.381,8.273,44.294-3.03,63.86c-11.299,19.57-31.504,32.399-53.79,34.546C299.809,244.362,278.596,255.449,256,255.449z
	 M256,23.559c-16.431,0-31.762,8.855-40.008,23.109c-2.103,3.635-5.983,5.876-10.182,5.88c-16.466,0.02-31.801,8.868-40.018,23.091
	c-8.213,14.226-8.209,31.933,0.009,46.21c2.094,3.639,2.094,8.118-0.001,11.757c-8.221,14.27-8.223,31.971-0.007,46.194
	c8.217,14.233,23.548,23.081,40.011,23.09c4.203,0.002,8.085,2.244,10.189,5.881c6.639,11.476,17.84,19.564,30.733,22.19
	c3.025,0.616,6.145,0.929,9.275,0.929c16.428,0,31.757-8.859,40.008-23.119c2.104-3.637,5.987-5.878,10.189-5.88
	c16.463-0.009,31.794-8.857,40.01-23.088c8.218-14.226,8.215-31.927-0.006-46.197c-2.096-3.639-2.097-8.118-0.001-11.757
	c8.219-14.275,8.221-31.984,0.007-46.212c-8.217-14.221-23.549-23.068-40.016-23.088c-4.199-0.005-8.079-2.245-10.182-5.88
	C287.763,32.413,272.432,23.559,256,23.559z"/>
<path d="M256,169.73c-25.293,0-45.869-20.576-45.869-45.869c0-25.299,20.576-45.881,45.869-45.881
	c25.299,0,45.881,20.582,45.881,45.881C301.881,149.154,281.299,169.73,256,169.73z M256,101.539
	c-12.301,0-22.31,10.014-22.31,22.322c0,12.301,10.009,22.31,22.31,22.31c12.308,0,22.322-10.009,22.322-22.31
	C278.322,111.552,268.309,101.539,256,101.539z"/>
<path d="M255.997,512c-3.762,0-7.459-1.8-9.736-5.148c-0.557-0.819-13.727-20.371-20.385-47.462
	c-9.114-37.079-1.747-70.44,21.304-96.477c30.371-34.296,26.779-69.03-11.644-112.622c-0.031-0.035-0.062-0.072-0.094-0.107
	l-0.243-0.284c-4.222-4.949-3.633-12.384,1.316-16.607c4.95-4.222,12.384-3.633,16.607,1.316l0.143,0.166
	c45.942,52.16,49.833,100.53,11.553,143.756c-17.811,20.118-23.268,45.213-16.221,74.587c5.547,23.125,17.039,40.327,17.154,40.498
	c3.634,5.384,2.229,12.705-3.15,16.35C260.576,511.34,258.274,512,255.997,512z"/>
<path d="M244.398,392.997c-0.032,0-0.064,0-0.095,0c-34.177-0.277-60.989-10.164-79.693-29.389
	c-4.536-4.662-4.434-12.12,0.229-16.657c4.663-4.536,12.121-4.434,16.657,0.229c11.936,12.268,28.882,19.516,50.487,21.62
	c-2.176-22.361-9.864-39.727-22.932-51.728c-15.556-14.285-35.772-18.236-48.067-19.248c0.047,0.578,0.1,1.174,0.161,1.786
	c0.644,6.474-4.082,12.244-10.554,12.888c-6.461,0.643-12.244-4.08-12.888-10.554c-0.969-9.746-0.469-16.352-0.409-17.074
	c0.479-5.729,5.026-10.276,10.756-10.756c1.828-0.152,45.129-3.416,76.732,25.42c20.55,18.751,31.114,46.202,31.396,81.591
	c0.025,3.157-1.218,6.191-3.45,8.423C250.517,391.757,247.52,392.997,244.398,392.997z"/>
<path d="M156.824,342.359c-4.593,0-8.957-2.702-10.856-7.198l-0.327-0.786c-2.473-6.018,0.403-12.9,6.421-15.371
	c6.017-2.471,12.9,0.403,15.371,6.421l0.238,0.569c2.531,5.993-0.274,12.903-6.268,15.435
	C159.905,342.059,158.351,342.359,156.824,342.359z"/>
<path d="M256.966,476.106c-9.889,0-16.825-1.61-17.432-1.756c-5.591-1.344-9.393-6.528-8.997-12.264
	c0.093-1.358,2.579-33.51,27.351-53.489c16.134-13.012,37.413-17.707,63.24-13.944c3.124,0.455,5.934,2.144,7.802,4.689
	c1.867,2.546,2.634,5.733,2.13,8.85c-4.171,25.76-15.034,44.644-32.29,56.125C284.427,473.862,268.64,476.106,256.966,476.106z
	 M256.396,452.548c8.275,0.068,19.633-1.33,29.482-7.951c8.763-5.89,15.135-15.155,19.025-27.631
	c-13.079-0.054-23.826,3.258-32.075,9.85C263.559,434.219,258.802,444.656,256.396,452.548z"/>
</svg>